<svg xmlns="http://www.w3.org/2000/svg" viewBox="66 90 380 380"><defs><linearGradient id="gbody" gradientUnits="userSpaceOnUse" x1="0" y1="150" x2="0" y2="382"><stop offset="0" stop-color="#3a4046"/><stop offset="1" stop-color="#14161a"/></linearGradient><linearGradient id="glcd" gradientUnits="userSpaceOnUse" x1="0" y1="184" x2="0" y2="290"><stop offset="0" stop-color="#8ceb99"/><stop offset="1" stop-color="#37a552"/></linearGradient><linearGradient id="bg" x1="0" y1="0" x2="1" y2="1"><stop offset="0" stop-color="#6ff0dc"/><stop offset="1" stop-color="#0f9d90"/></linearGradient></defs><path d="M106,424 A150,12 0 1 0 406,424 A150,12 0 1 0 106,424 Z" fill="#000000" fill-opacity="0.25"/><path d="M160,396 A30,15 0 1 0 220,396 A30,15 0 1 0 160,396 Z" fill="#FFFFFF" stroke="#0a0b0c" stroke-width="7" stroke-linecap="round" stroke-linejoin="round"/><path d="M292,396 A30,15 0 1 0 352,396 A30,15 0 1 0 292,396 Z" fill="#FFFFFF" stroke="#0a0b0c" stroke-width="7" stroke-linecap="round" stroke-linejoin="round"/><path d="M132,150 H380 A56,56 0 0 1 436,206 V326 A56,56 0 0 1 380,382 H132 A56,56 0 0 1 76,326 V206 A56,56 0 0 1 132,150 Z" fill="url(#gbody)" stroke="#6b7a85" stroke-width="6" stroke-linecap="round" stroke-linejoin="round"/><path d="M124,168 H330 A28,28 0 0 1 358,196 V292 A28,28 0 0 1 330,320 H124 A28,28 0 0 1 96,292 V196 A28,28 0 0 1 124,168 Z" fill="#0b0c0d"/><path d="M126,184 H328 A14,14 0 0 1 342,198 V276 A14,14 0 0 1 328,290 H126 A14,14 0 0 1 112,276 V198 A14,14 0 0 1 126,184 Z" fill="url(#glcd)"/><path d="M128,198 Q162,190 202,192" fill="none" stroke="#E3FFE8" stroke-width="6" stroke-linecap="round" stroke-linejoin="round" stroke-opacity="0.5"/><path d="M168,234 Q185,206 202,234" fill="none" stroke="#0b4a22" stroke-width="11" stroke-linecap="round" stroke-linejoin="round"/><path d="M252,234 Q269,206 286,234" fill="none" stroke="#0b4a22" stroke-width="11" stroke-linecap="round" stroke-linejoin="round"/><path d="M147,254 A13,7 0 1 0 173,254 A13,7 0 1 0 147,254 Z" fill="#FF7A9C" fill-opacity="0.6"/><path d="M281,254 A13,7 0 1 0 307,254 A13,7 0 1 0 281,254 Z" fill="#FF7A9C" fill-opacity="0.6"/><path d="M211,246 Q227,276 243,246 Z" fill="#0b4a22" stroke="#0b4a22" stroke-width="5" stroke-linecap="round" stroke-linejoin="round"/><path d="M390,168 H390 A24,24 0 0 1 414,192 V296 A24,24 0 0 1 390,320 H390 A24,24 0 0 1 366,296 V192 A24,24 0 0 1 390,168 Z" fill="#0b0c0d"/><path d="M390,196 L379,222 L401,222 Z" fill="#FFFFFF"/><path d="M379,266 L401,266 L390,292 Z" fill="#FFFFFF"/><path d="M372,244 H408" fill="none" stroke="#2B3035" stroke-width="3" stroke-linecap="round" stroke-linejoin="round"/><path d="M132,305 L148,296 V314 Z" fill="#FFFFFF"/><path d="M192,296 L208,305 L192,314 Z" fill="#FFFFFF"/><path d="M164,296 V314 M226,296 V314" fill="none" stroke="#2B3035" stroke-width="3" stroke-linecap="round" stroke-linejoin="round"/><path d="M253,305 A9,9 0 1 0 271,305 A9,9 0 1 0 253,305 Z" fill="#EC3B36"/><path d="M382,340 H406 A16,16 0 0 1 422,356 V356 A16,16 0 0 1 406,372 H382 A16,16 0 0 1 366,356 V356 A16,16 0 0 1 382,340 Z" fill="#0b0c0d" stroke="#6b7a85" stroke-width="4" stroke-linecap="round" stroke-linejoin="round"/><path d="M380,356 H408" fill="none" stroke="#A6E35B" stroke-width="6" stroke-linecap="round" stroke-linejoin="round"/></svg>
